<svg width="64" height="64" viewBox="0 0 64 64" xmlns="http://www.w3.org/2000/svg">
  <!-- Background circle with gradient -->
  <defs>
    <linearGradient id="bgGradientSmall" x1="0%" y1="0%" x2="100%" y2="100%">
      <stop offset="0%" style="stop-color:#007bff;stop-opacity:1" />
      <stop offset="100%" style="stop-color:#0056b3;stop-opacity:1" />
    </linearGradient>
    <linearGradient id="scanGradientSmall" x1="0%" y1="0%" x2="100%" y2="0%">
      <stop offset="0%" style="stop-color:#00ff88;stop-opacity:0" />
      <stop offset="50%" style="stop-color:#00ff88;stop-opacity:1" />
      <stop offset="100%" style="stop-color:#00ff88;stop-opacity:0" />
    </linearGradient>
  </defs>
  
  <!-- Main background circle -->
  <circle cx="32" cy="32" r="30" fill="url(#bgGradientSmall)" stroke="#ffffff" stroke-width="2"/>
  
  <!-- QR Code representation (simplified) -->
  <g transform="translate(16, 16)">
    <rect x="0" y="0" width="32" height="32" fill="#ffffff" rx="2"/>
    
    <!-- QR Code modules -->
    <rect x="2" y="2" width="4" height="4" fill="#000000"/>
    <rect x="8" y="2" width="4" height="4" fill="#000000"/>
    <rect x="14" y="2" width="4" height="4" fill="#000000"/>
    <rect x="20" y="2" width="4" height="4" fill="#000000"/>
    <rect x="26" y="2" width="2" height="2" fill="#000000"/>
    
    <rect x="2" y="8" width="4" height="4" fill="#000000"/>
    <rect x="10" y="8" width="4" height="4" fill="#000000"/>
    <rect x="16" y="8" width="4" height="4" fill="#000000"/>
    <rect x="22" y="8" width="4" height="4" fill="#000000"/>
    <rect x="26" y="8" width="2" height="2" fill="#000000"/>
    
    <rect x="2" y="14" width="4" height="4" fill="#000000"/>
    <rect x="8" y="14" width="4" height="4" fill="#000000"/>
    <rect x="14" y="14" width="4" height="4" fill="#000000"/>
    <rect x="20" y="14" width="4" height="4" fill="#000000"/>
    <rect x="26" y="14" width="2" height="2" fill="#000000"/>
    
    <rect x="2" y="20" width="4" height="4" fill="#000000"/>
    <rect x="10" y="20" width="4" height="4" fill="#000000"/>
    <rect x="16" y="20" width="4" height="4" fill="#000000"/>
    <rect x="22" y="20" width="4" height="4" fill="#000000"/>
    <rect x="26" y="20" width="2" height="2" fill="#000000"/>
    
    <rect x="2" y="26" width="2" height="2" fill="#000000"/>
    <rect x="6" y="26" width="2" height="2" fill="#000000"/>
    <rect x="10" y="26" width="2" height="2" fill="#000000"/>
    <rect x="14" y="26" width="2" height="2" fill="#000000"/>
    <rect x="18" y="26" width="2" height="2" fill="#000000"/>
    <rect x="22" y="26" width="2" height="2" fill="#000000"/>
    <rect x="26" y="26" width="2" height="2" fill="#000000"/>
  </g>
  
  <!-- Scanning laser beam effect -->
  <g transform="translate(16, 16)">
    <rect x="0" y="0" width="32" height="1" fill="url(#scanGradientSmall)" opacity="0.8">
      <animate attributeName="y" values="0;31;0" dur="2s" repeatCount="indefinite"/>
    </rect>
  </g>
  
  <!-- Verification checkmark -->
  <g transform="translate(48, 8)">
    <circle cx="8" cy="8" r="6" fill="#00ff88" stroke="#ffffff" stroke-width="1"/>
    <path d="M4 8 L7 11 L12 6" stroke="#ffffff" stroke-width="1.5" fill="none" stroke-linecap="round" stroke-linejoin="round"/>
  </g>
</svg>
