<svg width="32" height="32" viewBox="0 0 32 32" xmlns="http://www.w3.org/2000/svg">
  <!-- Background circle with gradient -->
  <defs>
    <linearGradient id="ribbonGradient" x1="0%" y1="0%" x2="100%" y2="100%">
      <stop offset="0%" style="stop-color:#007bff;stop-opacity:1" />
      <stop offset="100%" style="stop-color:#0056b3;stop-opacity:1" />
    </linearGradient>
  </defs>
  
  <!-- Main background circle -->
  <circle cx="16" cy="16" r="15" fill="url(#ribbonGradient)" stroke="#ffffff" stroke-width="1"/>
  
  <!-- QR Code representation (simplified) -->
  <g transform="translate(8, 8)">
    <rect x="0" y="0" width="16" height="16" fill="#ffffff" rx="1"/>
    
    <!-- QR Code modules -->
    <rect x="1" y="1" width="2" height="2" fill="#000000"/>
    <rect x="4" y="1" width="2" height="2" fill="#000000"/>
    <rect x="7" y="1" width="2" height="2" fill="#000000"/>
    <rect x="10" y="1" width="2" height="2" fill="#000000"/>
    <rect x="13" y="1" width="1" height="1" fill="#000000"/>
    
    <rect x="1" y="4" width="2" height="2" fill="#000000"/>
    <rect x="5" y="4" width="2" height="2" fill="#000000"/>
    <rect x="8" y="4" width="2" height="2" fill="#000000"/>
    <rect x="11" y="4" width="2" height="2" fill="#000000"/>
    <rect x="13" y="4" width="1" height="1" fill="#000000"/>
    
    <rect x="1" y="7" width="2" height="2" fill="#000000"/>
    <rect x="4" y="7" width="2" height="2" fill="#000000"/>
    <rect x="7" y="7" width="2" height="2" fill="#000000"/>
    <rect x="10" y="7" width="2" height="2" fill="#000000"/>
    <rect x="13" y="7" width="1" height="1" fill="#000000"/>
    
    <rect x="1" y="10" width="2" height="2" fill="#000000"/>
    <rect x="5" y="10" width="2" height="2" fill="#000000"/>
    <rect x="8" y="10" width="2" height="2" fill="#000000"/>
    <rect x="11" y="10" width="2" height="2" fill="#000000"/>
    <rect x="13" y="10" width="1" height="1" fill="#000000"/>
    
    <rect x="1" y="13" width="1" height="1" fill="#000000"/>
    <rect x="3" y="13" width="1" height="1" fill="#000000"/>
    <rect x="5" y="13" width="1" height="1" fill="#000000"/>
    <rect x="7" y="13" width="1" height="1" fill="#000000"/>
    <rect x="9" y="13" width="1" height="1" fill="#000000"/>
    <rect x="11" y="13" width="1" height="1" fill="#000000"/>
    <rect x="13" y="13" width="1" height="1" fill="#000000"/>
  </g>
  
  <!-- Verification checkmark -->
  <g transform="translate(20, 6)">
    <circle cx="4" cy="4" r="3" fill="#00ff88" stroke="#ffffff" stroke-width="0.5"/>
    <path d="M2 4 L3.5 5.5 L6 3" stroke="#ffffff" stroke-width="0.8" fill="none" stroke-linecap="round" stroke-linejoin="round"/>
  </g>
</svg>
